<svg id="Layer_1" data-name="Layer 1" xmlns="http://www.w3.org/2000/svg" viewBox="0 0 124 124"><defs><style>.cls-1{fill:#434440;}.cls-2{fill:#fff;}</style></defs><title>jpg</title><path class="cls-1" d="M117.88,32.09,95.64,6.31,91.25,1.2H38.71A12.76,12.76,0,0,0,26,14V57.09h7.91v-40A7.17,7.17,0,0,1,41,9.9L86,9.86V31.14a14.34,14.34,0,0,0,14.34,14.35h15.56l-.77,61.41a7.19,7.19,0,0,1-7.16,7.16l-67.47,0c-3.61,0-6.51-3.54-6.53-7.91v-5.19H26v7.75c0,7.79,5.22,14.12,11.63,14.12l72.61,0A12.79,12.79,0,0,0,123,110V38l-5.12-5.95"/><path class="cls-1" d="M83.34,99.11H1V59.79H83.34V99.11M8.91,92.37H75.42V66.53H8.91M83.34,99H1V59.68H83.34V99"/><path class="cls-2" d="M23.36,67.38h3.19V83.92c0,6.56-3.22,8.58-7.47,8.58a10.26,10.26,0,0,1-3.41-.59l.47-2.6a7.81,7.81,0,0,0,2.68.47c2.86,0,4.54-1.28,4.54-6.12Z"/><path class="cls-2" d="M35.06,79.59a10.88,10.88,0,0,0,2.64.26c3.85,0,6.2-1.87,6.2-5.29,0-3.26-2.31-4.84-5.83-4.84a13.13,13.13,0,0,0-3,.26ZM31.87,67.67A36.58,36.58,0,0,1,38,67.19c3.16,0,5.47.74,6.94,2.06a6.66,6.66,0,0,1,2.16,5.17,7.28,7.28,0,0,1-1.91,5.28c-1.68,1.8-4.44,2.71-7.55,2.71a10.61,10.61,0,0,1-2.57-.22V92.1H31.87Z"/><path class="cls-2" d="M70.19,91a22.81,22.81,0,0,1-7.59,1.36c-3.74,0-6.82-.95-9.24-3.26a12.73,12.73,0,0,1-3.45-9.21C50,72.51,55,67.12,63.3,67.12a15.18,15.18,0,0,1,6.16,1.14l-.78,2.6a12.69,12.69,0,0,0-5.46-1.06c-6,0-9.94,3.74-9.94,9.93s3.78,10,9.54,10a10.31,10.31,0,0,0,4.25-.66V81.68h-5V79.11h8.14Z"/></svg>