<svg id="Layer_1" data-name="Layer 1" xmlns="http://www.w3.org/2000/svg" viewBox="0 0 124 124"><defs><style>.cls-1{fill:#434440;}.cls-2{fill:#2372ba;}</style></defs><title>microsoft_office_word</title><path class="cls-1" d="M117.88,32.09,95.64,6.31,91.25,1.2H38.71A12.76,12.76,0,0,0,26,14V30.2h7.91V17.07A7.17,7.17,0,0,1,41,9.9L86,9.86V31.14a14.34,14.34,0,0,0,14.34,14.35h15.56l-.77,61.41a7.19,7.19,0,0,1-7.16,7.16l-67.47,0c-3.61,0-6.51-3.54-6.53-7.91v-5.19H26v7.75c0,7.79,5.22,14.12,11.63,14.12l72.61,0A12.79,12.79,0,0,0,123,110V38l-5.12-5.95"/><path class="cls-2" d="M8.91,97H75.42V34.16H8.91m74.43,70.72H1V26.24H83.34v78.64"/><polyline class="cls-2" points="70.47 49.77 58.43 86.32 48.44 86.32 41.57 65.13 34.36 86.32 24.4 86.32 13.16 49.77 23.4 49.77 29.94 73.39 37.92 49.77 45.7 49.77 53.13 73.39 60.24 49.77 70.47 49.77"/></svg>