<svg id="Layer_1" data-name="Layer 1" xmlns="http://www.w3.org/2000/svg" viewBox="0 0 124 124"><defs><style>.cls-1{fill:#434440;}.cls-2{fill:#ea4c3a;}.cls-3{fill:none;stroke:#ea4c3a;stroke-linejoin:round;stroke-width:0.75px;}</style></defs><title>pdf</title><path class="cls-1" d="M117.89,32.1,95.66,6.31,91.25,1.2H38.72A12.76,12.76,0,0,0,26,14V30.2h7.91V17.08A7.18,7.18,0,0,1,41,9.9L86,9.86V31.15A14.34,14.34,0,0,0,100.3,45.5h15.56l-.77,61.39a7.2,7.2,0,0,1-7.17,7.17l-67.47,0c-3.61,0-6.51-3.54-6.54-7.91v-5.19H26v7.75c0,7.79,5.22,14.12,11.63,14.12l72.61,0A12.78,12.78,0,0,0,123,110V38l-5.11-5.94"/><path class="cls-2" d="M8.91,97H75.43V34.15H8.91m74.44,70.73H1V26.24H83.35v78.64"/><path class="cls-3" d="M43.16,38.26c1.25.58,1,1.34.6,4.91a74,74,0,0,1-4.21,17.06A91.61,91.61,0,0,1,30,78.17a49.52,49.52,0,0,1-8.16,9.75,9.48,9.48,0,0,1-4.56,2.45c-.95.17-1.39,0-1.66-.48a3.37,3.37,0,0,1-.12-2.25,7.09,7.09,0,0,1,2.21-3.53,28.4,28.4,0,0,1,7.3-4.85A78,78,0,0,1,36.34,75a81.49,81.49,0,0,1,8.77-2,65,65,0,0,1,6.56-.92,36.57,36.57,0,0,1,11.5.88,14.28,14.28,0,0,1,4.26,1.64,7.26,7.26,0,0,1,2.79,3,4.14,4.14,0,0,1,.08,3.37,3.54,3.54,0,0,1-2.3,1.8,5.56,5.56,0,0,1-3.48,0A16.83,16.83,0,0,1,60,80.3a42.69,42.69,0,0,1-5.64-4.86,99.28,99.28,0,0,1-7.39-8.27,57.56,57.56,0,0,1-5.55-8.31,30.34,30.34,0,0,1-2.56-6.46,33.41,33.41,0,0,1-1.17-5.81,20.41,20.41,0,0,1,.08-4.7A6.87,6.87,0,0,1,38.6,39a3.08,3.08,0,0,1,1.48-1.12,3.8,3.8,0,0,1,1-.2,1.73,1.73,0,0,1,.91,0,7.7,7.7,0,0,1,1.39.74"/></svg>